<?xml version="1.0" standalone="no"?>
<!DOCTYPE svg PUBLIC "-//W3C//DTD SVG 20010904//EN"
 "http://www.w3.org/TR/2001/REC-SVG-20010904/DTD/svg10.dtd">
<svg version="1.0" xmlns="http://www.w3.org/2000/svg"
 width="64.000000pt" height="64.000000pt" viewBox="0 0 64.000000 64.000000"
 preserveAspectRatio="xMidYMid meet">
<metadata>
Created by potrace 1.16, written by Peter Selinger 2001-2019
</metadata>
<g transform="translate(0.000000,64.000000) scale(0.100000,-0.100000)"
fill="#000000" stroke="none">
<path d="M223 400 c-18 -10 -39 -30 -47 -43 -9 -12 -33 -31 -54 -40 -64 -28
-87 -103 -42 -139 24 -20 120 -26 120 -8 0 6 -22 10 -49 10 -54 0 -81 17 -81
51 0 26 53 79 78 79 12 0 28 14 40 34 28 47 93 72 149 57 22 -6 48 -20 58 -31
10 -11 31 -20 47 -20 71 0 128 -48 128 -107 0 -44 -23 -63 -76 -63 -31 0 -43
-4 -38 -11 4 -7 24 -9 52 -6 133 15 98 186 -41 200 -20 2 -45 11 -54 19 -50
44 -135 52 -190 18z"/>
<path d="M269 357 c-67 -41 -70 -45 -67 -106 3 -55 4 -56 53 -88 59 -39 72
-40 122 -11 67 38 73 47 73 103 0 58 -8 69 -77 104 -51 25 -58 25 -104 -2z"/>
</g>
</svg>
